# xmcd
#
# Track frame offsets:
#	150
#	19868
#	39848
#
# Disc length: 795 seconds
#
# Revision: 2
# Processed by: cddbd v1.4PL0 Copyright (c) Steve Scherf et al.
# Submitted via: EasyCDDAExtractor 5.0.7
#
DISCID=17031903
DTITLE=Whitney Houston - I Learned From The Best (Single)
DYEAR=2000
DGENRE=Dance
TTITLE0=I Learned From The Best(Original Version)
TTITLE1=I Learned From The Best(HQ2 Uptempo Remix)
TTITLE2=I Learned From The Best(Jr. Vasquez Disco Mix)
EXTD=YEAR: 2000
EXTT0=
EXTT1=
EXTT2=
PLAYORDER=
